<svg xmlns="http://www.w3.org/2000/svg" xmlns:xlink="http://www.w3.org/1999/xlink" viewBox="0 0 323.61 377.57"><defs><style>.cls-1{fill:#39b54a;}.cls-2{fill:#fff;}.cls-3{opacity:0.86;}.cls-4{clip-path:url(#clip-path);}.cls-5{fill:#009444;}.cls-6{fill:#006838;}</style><clipPath id="clip-path"><path class="cls-1" d="M268.22,152.23c0,48.6-28.11,101-103.38,101h-100c-5.24,0-8.1,2.38-8.1,8.1v94.84a21.4,21.4,0,0,1-21.41,21.4H21.89A21.4,21.4,0,0,1,.48,356.17V250.37c0-36.2,15.24-51,50.49-51H166.74c31.92,0,44.78-21.92,44.78-44.31,0-23.34-13.81-42.87-44.3-42.87H21.41A21.41,21.41,0,0,1,0,90.81V77.41A21.41,21.41,0,0,1,21.41,56H164.84a153.68,153.68,0,0,1,20.68,1.34A19,19,0,0,0,172,75.52v.53a19,19,0,0,0,19,19h18.23a19,19,0,0,1,19,19v18.51a19,19,0,0,0,19,19h.81A19,19,0,0,0,267,134.77,119.61,119.61,0,0,1,268.22,152.23Z"/></clipPath></defs><g id="Layer_2" data-name="Layer 2"><g id="Layer_1-2" data-name="Layer 1"><path class="cls-2" d="M164.84,56c72.41,0,103.38,44.78,103.38,96.23,0,48.6-28.11,101-103.38,101h-100c-5.24,0-8.1,2.38-8.1,8.1v94.83a21.4,21.4,0,0,1-21.41,21.41H21.89A21.4,21.4,0,0,1,.48,356.16V250.37c0-36.21,15.24-51,50.5-51H166.74c31.92,0,44.79-21.92,44.79-44.31,0-23.34-13.82-42.88-44.31-42.88H21.41A21.41,21.41,0,0,1,0,90.8V77.41A21.41,21.41,0,0,1,21.41,56Z"/><g class="cls-3"><path class="cls-1" d="M268.22,152.23c0,48.6-28.11,101-103.38,101h-100c-5.24,0-8.1,2.38-8.1,8.1v94.84a21.4,21.4,0,0,1-21.41,21.4H21.89A21.4,21.4,0,0,1,.48,356.17V250.37c0-36.2,15.24-51,50.49-51H166.74c31.92,0,44.78-21.92,44.78-44.31,0-23.34-13.81-42.87-44.3-42.87H21.41A21.41,21.41,0,0,1,0,90.81V77.41A21.41,21.41,0,0,1,21.41,56H164.84a153.68,153.68,0,0,1,20.68,1.34A19,19,0,0,0,172,75.52v.53a19,19,0,0,0,19,19h18.23a19,19,0,0,1,19,19v18.51a19,19,0,0,0,19,19h.81A19,19,0,0,0,267,134.77,119.61,119.61,0,0,1,268.22,152.23Z"/><g class="cls-4"><path class="cls-1" d="M38.48,44.36C33.71,56.9,28.91,69.53,26.35,82.74c-2.69,13.89-2.23,27.84-.21,41.79,1.16,8,2.77,15.85,4.38,23.74A2.54,2.54,0,0,0,33.6,150c2.44-.52,4.08-2.39,5.45-4.35s2.65-4,3.92-6q4-6.45,7.54-13.21A195,195,0,0,0,62.34,98.48c4.08-12.22,11-43.56,30.4-33.95,9.36,4.66,12.82,15.19,15.84,24.47,1,3,5.82,1.74,4.82-1.33-3-9.17-6.32-19-14.29-25a22.88,22.88,0,0,0-12.23-4.77,17.62,17.62,0,0,0-12.6,4.4c-3.58,3-6.14,7.2-8.19,11.35A108.3,108.3,0,0,0,60.44,88.1C57.24,97.92,54,107.62,49.6,117c-2.47,5.27-5.18,10.44-8.13,15.47Q39.3,136.18,37,139.8c-.8,1.22-1.58,2.47-2.44,3.65a3.79,3.79,0,0,1-2.24,1.74l3.07,1.75c-2.77-13.58-5.57-27.24-5.92-41.14a99.72,99.72,0,0,1,1.41-19.9,146.26,146.26,0,0,1,4.84-19c2.29-7.16,5-14.18,7.64-21.2a2.53,2.53,0,0,0-1.75-3.08,2.57,2.57,0,0,0-3.08,1.75Z"/></g></g><path class="cls-1" d="M267,134.77a19,19,0,0,1-18.88,16.8h-.81a19,19,0,0,1-19-19V114.06a19,19,0,0,0-19-19H191a19,19,0,0,1-19-19v-.53a19,19,0,0,1,13.48-18.18C235.8,64.11,261.27,96,267,134.77Z"/><path class="cls-5" d="M323.61,75.52v.53a19,19,0,0,1-19,19H286.1a19,19,0,0,0-19,19v18.51a17.69,17.69,0,0,1-.13,2.2C261.27,96,235.8,64.11,185.52,57.34a19,19,0,0,1,5.52-.82h18.23a19,19,0,0,0,19-19V19a19,19,0,0,1,19-19h.81a19,19,0,0,1,19,19V37.52a19,19,0,0,0,19,19h18.51A19,19,0,0,1,323.61,75.52Z"/><path class="cls-6" d="M185.52,57.34s72.06,5,81.26,76.2C266.78,133.54,260.5,70.37,185.52,57.34Z"/></g></g></svg>