<svg xmlns="http://www.w3.org/2000/svg" viewBox="0 0 645.3 260.64"><defs><style>.cls-1{fill:#fff;}.cls-2{fill:#39b54a;}</style></defs><g id="Layer_2" data-name="Layer 2"><g id="Layer_1-2" data-name="Layer 1"><path class="cls-1" d="M33.58,128.88,74,177.48l42.36-48.6h28.51L88.43,193.69l56.81,66.95H117.13L73.4,208.33,28.5,260.64H0l59-68.71L5.47,128.88Z"/><path class="cls-2" d="M300.3,0C359,0,384.09,36.3,384.09,78c0,39.39-22.78,81.86-83.79,81.86H219.21c-4.25,0-6.56,1.93-6.56,6.57v94.21H167.08V157.54c0-29.34,12.36-41.31,40.93-41.31h93.83c25.87,0,36.3-17.76,36.3-35.91,0-18.92-11.2-34.76-35.91-34.76H166.69V0Z"/><path class="cls-1" d="M410,125.17V260.64H391V125.17Z"/><path class="cls-1" d="M455.77,166.15V222.7c0,11.1,8.23,19.51,23.27,19.51h15.39c15,0,23.09-8.41,23.09-19.51V166.15h18.61v57.27c0,21.83-14,37.22-41,37.22H477.61c-27,0-41-15.39-41-37.22V166.15Z"/><path class="cls-1" d="M641.54,166.15V184.4H589.28c-8.77,0-12.35,3.58-12.35,10.74,0,6.62,2.86,10.2,13.42,10.2h22.19c26.13,0,32.76,12,32.76,26.67,0,16.82-8.77,28.63-31,28.63H559.39V242.21h54.94c8.77,0,12.35-3,12.35-10.38,0-7.52-3.93-10.56-13.42-10.56H590.89c-26.13,0-32.57-13.06-32.57-27.56,0-17,8.77-27.56,30.78-27.56Z"/><path class="cls-2" d="M496.11,142.83h4.7a4.83,4.83,0,0,1,4.83,4.83v.14a4.83,4.83,0,0,1-4.83,4.83h-4.7a4.84,4.84,0,0,0-4.84,4.83v4.71a4.83,4.83,0,0,1-4.83,4.83h-.2a4.84,4.84,0,0,1-4.84-4.83v-4.71a4.83,4.83,0,0,0-4.83-4.83h-4.63a4.83,4.83,0,0,1-4.83-4.83v-.14a4.83,4.83,0,0,1,4.83-4.83h4.63A4.83,4.83,0,0,0,481.4,138v-4.71a4.84,4.84,0,0,1,4.84-4.83h.2a4.83,4.83,0,0,1,4.83,4.83V138A4.84,4.84,0,0,0,496.11,142.83Z"/></g></g></svg>