<svg xmlns="http://www.w3.org/2000/svg" viewBox="0 0 323.61 377.57"><defs><style>.cls-1{fill:#fff;}.cls-2{opacity:0.86;}.cls-3{fill:#a7a9ac;}.cls-4{fill:#d1d3d4;}.cls-5{fill:#58595b;}</style></defs><g id="Layer_2" data-name="Layer 2"><g id="Layer_1-2" data-name="Layer 1"><path class="cls-1" d="M164.84,56c72.41,0,103.38,44.78,103.38,96.23,0,48.6-28.11,101-103.38,101h-100c-5.24,0-8.1,2.38-8.1,8.1v94.83a21.4,21.4,0,0,1-21.41,21.41H21.89A21.4,21.4,0,0,1,.48,356.16V250.37c0-36.21,15.24-51,50.5-51H166.74c31.92,0,44.79-21.92,44.79-44.31,0-23.34-13.82-42.88-44.31-42.88H21.41A21.41,21.41,0,0,1,0,90.8V77.41A21.41,21.41,0,0,1,21.41,56Z"/><g class="cls-2"><path class="cls-1" d="M268.22,152.23c0,48.6-28.11,101-103.38,101h-100c-5.24,0-8.1,2.38-8.1,8.1v94.84a21.4,21.4,0,0,1-21.41,21.4H21.89A21.4,21.4,0,0,1,.48,356.17V250.37c0-36.2,15.24-51,50.49-51H166.74c31.92,0,44.78-21.92,44.78-44.31,0-23.34-13.81-42.87-44.3-42.87H21.41A21.41,21.41,0,0,1,0,90.81V77.41A21.41,21.41,0,0,1,21.41,56H164.84a153.68,153.68,0,0,1,20.68,1.34A19,19,0,0,0,172,75.52v.53a19,19,0,0,0,19,19h18.23a19,19,0,0,1,19,19v18.51a19,19,0,0,0,19,19h.81A19,19,0,0,0,267,134.77,119.61,119.61,0,0,1,268.22,152.23Z"/></g><path class="cls-3" d="M267,134.77a19,19,0,0,1-18.88,16.8h-.81a19,19,0,0,1-19-19V114.06a19,19,0,0,0-19-19H191a19,19,0,0,1-19-19v-.53a19,19,0,0,1,13.48-18.18C235.8,64.11,261.27,96,267,134.77Z"/><path class="cls-4" d="M323.61,75.52v.53a19,19,0,0,1-19,19H286.1a19,19,0,0,0-19,19v18.51a17.69,17.69,0,0,1-.13,2.2C261.27,96,235.8,64.11,185.52,57.34a19,19,0,0,1,5.52-.82h18.23a19,19,0,0,0,19-19V19a19,19,0,0,1,19-19h.81a19,19,0,0,1,19,19V37.52a19,19,0,0,0,19,19h18.51A19,19,0,0,1,323.61,75.52Z"/><path class="cls-5" d="M185.52,57.34s72.06,5,81.26,76.2C266.78,133.54,260.5,70.37,185.52,57.34Z"/></g></g></svg>